# xmcd
#
# Track frame offsets:
#	150
#	12630
#	22360
#	34477
#	46760
#	62200
#	73032
#	95022
#	110975
#	123022
#	140452
#	151500
#	164177
#	176777
#	189607
#	200005
#	213042
#	223600
#	236755
#	250837
#	273010
#	287097
#	303055
#	319865
#
# Disc length: 4521 seconds
#
# Revision: 1
# Processed by: cddbd v1.5.1PL2 Copyright (c) Steve Scherf et al.
# Submitted via: EasyCDDAExtractor 9.0.0.1
#
DISCID=6f11a718
DTITLE=Various Artist - CHICAGO BLUES
DYEAR=1998
DGENRE=BLUES
TTITLE0=Muddy WATERS - I'm your hoochie coochie man - 1954
TTITLE1=Willie DIXON - 29 ways - 1956
TTITLE2=Lonnie JOHNSON - Mr Johnson's blues - 1925
TTITLE3=MAGIC SAM - 21 days in Jail - 1958
TTITLE4=MAMIE SMITH - Crazy blues - 1920
TTITLE5=Dinah WASHINGTON - Good daddy blues - 1949
TTITLE6=Lavern BAKER - Empty bed blues - 1958
TTITLE7=Aretha FRANKLIN - What a difference a day made - 1985
TTITLE8=IG MAYBELLE WITH THE LEROY KIRKLAND ORCHESTRA - Gabbin' blues - 1952
TTITLE9=HOUND DOG TAYLOR - She's gone - 1971
TTITLE10=JB LENOIR - Mama talk to your daughter - 1954
TTITLE11=BIG BILL BROONZY - Rockin' chair blues - 1941
TTITLE12=Jimmy RODGERS - Walkin' by myself - 1956
TTITLE13=HOWLIN' WOLF - I ain't superstitious - 1961
TTITLE14=John-Lee HOOKE - Baby please don't go - 1950
TTITLE15=Elmore JAMES - Dust my broom - 1959
TTITLE16=Jimmy REED - Baby what you want me to do - 1960
TTITLE17=Etta JAMES - All I could do was cry - 1971
TTITLE18=Otis RUSH - I can't quit you baby - 1956
TTITLE19=Luther ALLISON - Sweet home Chicago - 1987
TTITLE20=Eddy CLEARWATER - Little bit of blues - 1992
TTITLE21=Buddy GUY - Shame, shame, shame - 1994
TTITLE22=POPA CHUBBY - Palace of the king - 1995
TTITLE23=Duke ROBILLARD - Let me love you - 1983
EXTD=
EXTT0=
EXTT1=
EXTT2=
EXTT3=
EXTT4=
EXTT5=
EXTT6=
EXTT7=
EXTT8=
EXTT9=
EXTT10=
EXTT11=
EXTT12=
EXTT13=
EXTT14=
EXTT15=
EXTT16=
EXTT17=
EXTT18=
EXTT19=
EXTT20=
EXTT21=
EXTT22=
EXTT23=
PLAYORDER=
